<svg nv_id="177" width="28" height="28" viewBox="0 0 28 28" fill="#E77E43" xmlns="http://www.w3.org/2000/svg"><path nv_id="178" d="M14 -0.000183105C12.5503 -0.000183105 11.375 1.17507 11.375 2.62482V11.3748H2.625C1.17526 11.3748 0 12.55 0 13.9998C0 15.4495 1.17526 16.6248 2.625 16.6248H11.375V25.3748C11.375 26.8246 12.5503 27.9998 14 27.9998C15.4498 27.9998 16.625 26.8246 16.625 25.3748V16.6248H25.375C26.8247 16.6248 28 15.4495 28 13.9998C28 12.55 26.8247 11.3748 25.375 11.3748H16.625V2.62482C16.625 1.17507 15.4498 -0.000183105 14 -0.000183105Z"></path></svg>