<svg nv_id="265" width="27" height="30" viewBox="0 0 27 30" fill="#0896FF" xmlns="http://www.w3.org/2000/svg"><path nv_id="266" d="M0.833333 9.16648H25.8333C26.2942 9.16648 26.6667 8.79315 26.6667 8.33315V5.83315C26.6667 4.45482 25.545 3.33315 24.1667 3.33315H17.5V2.49982C17.5 1.12148 16.3783 -0.000183105 15 -0.000183105H11.6667C10.2883 -0.000183105 9.16667 1.12148 9.16667 2.49982V3.33315H2.5C1.12167 3.33315 0 4.45482 0 5.83315V8.33315C0 8.79315 0.373333 9.16648 0.833333 9.16648ZM10.8333 2.49982C10.8333 2.04065 11.2075 1.66648 11.6667 1.66648H15C15.46 1.66648 15.8333 2.04065 15.8333 2.49982V3.33315H10.8333V2.49982Z"></path><path nv_id="267" d="M3.01018 10.8332C2.45351 10.8332 2.02101 11.3198 2.08768 11.8732L3.91685 27.0482C4.11101 28.7307 5.53435 29.9998 7.22851 29.9998H19.4385C21.1318 29.9998 22.5552 28.7315 22.7502 27.0523L24.5802 11.8732C24.6468 11.3198 24.2152 10.8332 23.6577 10.8332H3.01018ZM8.72268 27.4982C8.70435 27.4998 8.68518 27.4998 8.66685 27.4998C8.23185 27.4998 7.86601 27.1623 7.83601 26.7215L7.05851 15.0548C7.02768 14.5957 7.37518 14.199 7.83435 14.1682C8.28685 14.1223 8.69018 14.4848 8.72101 14.944L9.49851 26.6107C9.52935 27.0698 9.18185 27.4673 8.72268 27.4982ZM14.1677 26.6665C14.1677 27.1265 13.7943 27.4998 13.3343 27.4998C12.8743 27.4998 12.501 27.1265 12.501 26.6665V14.9998C12.501 14.5398 12.8743 14.1665 13.3343 14.1665C13.7943 14.1665 14.1677 14.5398 14.1677 14.9998V26.6665ZM18.8327 26.7215C18.8035 27.1615 18.436 27.4998 18.0018 27.4998C17.9835 27.4998 17.9643 27.4998 17.946 27.4982C17.4868 27.4673 17.1393 27.0707 17.1693 26.6115L17.9477 14.9448C17.9785 14.4857 18.3885 14.1357 18.8343 14.169C19.2935 14.1998 19.641 14.5965 19.611 15.0557L18.8327 26.7215Z"></path></svg>