<svg width="779" height="180" viewBox="0 0 779 180" fill="none" xmlns="http://www.w3.org/2000/svg">
<path d="M164.43 0H14.66C6.56351 0 0 6.56351 0 14.66V164.43C0 172.526 6.56351 179.09 14.66 179.09H164.43C172.526 179.09 179.09 172.526 179.09 164.43V14.66C179.09 6.56351 172.526 0 164.43 0Z" fill="url(#paint0_linear_3138_1635)"/>
<path d="M60.34 98.9717C59.52 97.8317 57.83 97.8017 56.97 98.9417L33.55 130.282C32.52 131.662 33.52 133.622 35.2 133.622H46.43C52.95 133.622 59.1 130.522 63.02 125.292L70.33 115.522C70.88 114.802 70.88 113.832 70.33 113.082L60.27 98.9717H60.34Z" fill="white"/>
<path d="M135.65 108.601C135 107.711 133.69 107.501 132.8 108.151C127.24 112.351 120.06 113.901 112.99 112.111C103.44 109.701 96.4 101.171 95.65 91.3609C94.62 77.7009 105.4 66.2109 118.86 66.2109C123.67 66.2109 128.27 67.6509 132.15 70.3709C133.04 70.9909 134.31 70.7509 134.93 69.8509L144.58 56.4009C145.23 55.4709 145.06 54.1609 144.13 53.5109C136.78 48.3109 128.06 45.4609 118.86 45.4609C103.61 45.4609 90.15 53.2709 82.29 65.1409L78.58 70.1309C77.76 71.2309 76.11 71.2309 75.28 70.1309L63.09 53.7909C59.07 48.5609 52.93 45.4609 46.4 45.4609H37.03C35.35 45.4609 34.39 47.3509 35.35 48.7309L57.36 79.3509L79.75 110.451L82.63 114.511C90.56 126.001 103.82 133.571 118.82 133.571C128.4 133.571 137.57 130.441 145.16 124.731C146.05 124.041 146.22 122.731 145.54 121.841L135.65 108.591V108.601Z" fill="white"/>
<path d="M215.62 47.459C215.62 46.359 216.52 45.459 217.62 45.459H244.89C269.54 45.459 286.2 62.119 286.2 85.959C286.2 109.799 269.54 126.459 244.89 126.459H217.62C216.52 126.459 215.62 125.559 215.62 124.459V47.459ZM244.2 111.179C258.78 111.179 268.61 101.109 268.61 85.959C268.61 70.809 258.77 60.739 244.2 60.739H234.4C233.3 60.739 232.4 61.639 232.4 62.739V109.189C232.4 110.289 233.3 111.189 234.4 111.189H244.2V111.179Z" fill="black"/>
<path d="M349.47 126.46H337.5C336.4 126.46 335.5 125.56 335.5 124.46V123.91C335.5 122.23 333.53 121.27 332.25 122.35C328.17 125.81 322.95 127.62 316.76 127.62C299.98 127.62 287.26 114.31 287.26 95.8005C287.26 77.2905 299.76 63.9805 316.65 63.9805C322.86 63.9805 328.08 65.8005 332.22 69.2705C333.52 70.3605 335.51 69.4505 335.51 67.7505V67.1405C335.51 66.0405 336.41 65.1405 337.51 65.1405H349.48C350.58 65.1405 351.48 66.0405 351.48 67.1405V124.46C351.48 125.56 350.58 126.46 349.48 126.46H349.47ZM308.1 108.63C319.11 115.03 330.02 112.59 335.13 105.58C335.38 105.24 335.5 104.83 335.5 104.41V87.1805C335.5 86.7605 335.38 86.3505 335.13 86.0105C332.07 81.8105 326.92 79.2505 320.92 79.2505C307.38 79.2505 299.32 92.1805 307.31 107.8C307.46 108.09 307.82 108.47 308.1 108.64V108.63Z" fill="black"/>
<path d="M364.08 104.469V81.4792C364.08 80.3792 363.18 79.4792 362.08 79.4792H355.9C354.8 79.4792 353.9 78.5792 353.9 77.4792V68.0592C353.9 66.9592 354.8 66.0592 355.9 66.0592H362.08C363.18 66.0592 364.08 65.1592 364.08 64.0592V50.6992C364.08 49.5992 364.98 48.6992 366.08 48.6992H378.39C379.49 48.6992 380.39 49.5992 380.39 50.6992V64.0592C380.39 65.1592 381.29 66.0592 382.39 66.0592H402.46C403.56 66.0592 404.46 66.9592 404.46 68.0592V77.4792C404.46 78.5792 403.56 79.4792 402.46 79.4792H382.39C381.29 79.4792 380.39 80.3792 380.39 81.4792V102.269C380.39 108.979 383.86 112.219 389.18 112.219C392.36 112.219 395.61 111.179 398.62 108.899C399.59 108.159 401 108.529 401.56 109.609L406.26 118.759C406.7 119.619 406.45 120.679 405.69 121.269C400.11 125.609 393.82 127.599 386.64 127.599C372.29 127.599 364.08 119.149 364.08 104.459V104.469Z" fill="black"/>
<path d="M466.9 126.46H454.93C453.83 126.46 452.93 125.56 452.93 124.46V123.91C452.93 122.23 450.96 121.27 449.68 122.35C445.6 125.81 440.38 127.62 434.19 127.62C417.41 127.62 404.69 114.31 404.69 95.8005C404.69 77.2905 417.19 63.9805 434.08 63.9805C440.29 63.9805 445.51 65.8005 449.65 69.2705C450.95 70.3605 452.94 69.4505 452.94 67.7505V67.1405C452.94 66.0405 453.84 65.1405 454.94 65.1405H466.91C468.01 65.1405 468.91 66.0405 468.91 67.1405V124.46C468.91 125.56 468.01 126.46 466.91 126.46H466.9ZM425.54 108.63C436.55 115.03 447.46 112.59 452.57 105.58C452.82 105.24 452.94 104.83 452.94 104.41V87.1805C452.94 86.7605 452.82 86.3505 452.57 86.0105C449.51 81.8105 444.36 79.2505 438.36 79.2505C424.82 79.2505 416.76 92.1805 424.75 107.8C424.9 108.09 425.26 108.47 425.54 108.64V108.63Z" fill="black"/>
<path d="M475.37 113.091L479.09 109.821C479.94 109.071 481.24 109.191 481.96 110.071C486.82 115.961 493.85 119.171 501.06 119.171C510.66 119.171 517.03 113.391 517.03 105.401C517.03 97.4105 510.09 93.7105 506.73 91.9805L492.5 84.9205C485.79 82.0305 477.46 76.2405 477.46 64.7905C477.46 52.7605 486.72 44.3105 500.49 44.3105C509.12 44.3105 516.45 47.3305 522.75 53.6605C523.51 54.4305 523.55 55.6605 522.81 56.4505L519.67 59.8405C518.89 60.6905 517.56 60.6805 516.76 59.8505C511.93 54.8205 506.61 52.5305 500.72 52.5305C492.04 52.5305 486.49 57.5105 486.49 64.4505C486.49 71.3905 492.62 74.9805 496.67 77.0605L510.79 84.0005C518.08 87.1205 526.06 93.2605 526.06 105.061C526.06 118.481 515.88 127.621 500.95 127.621C490.41 127.621 481.1 123.441 475.12 115.851C474.46 115.011 474.57 113.811 475.37 113.101V113.091Z" fill="black"/>
<path d="M535.19 107.479V79.3991C535.19 78.2991 534.29 77.3991 533.19 77.3991H525.62C524.52 77.3991 523.62 76.4991 523.62 75.3991V71.8791C523.62 70.7791 524.52 69.8791 525.62 69.8791H533.19C534.29 69.8791 535.19 68.9791 535.19 67.8791V52.7891C535.19 51.6891 536.09 50.7891 537.19 50.7891H541.87C542.97 50.7891 543.87 51.6891 543.87 52.7891V67.8791C543.87 68.9791 544.77 69.8791 545.87 69.8791H567.67C568.77 69.8791 569.67 70.7791 569.67 71.8791V75.3991C569.67 76.4991 568.77 77.3991 567.67 77.3991H545.87C544.77 77.3991 543.87 78.2991 543.87 79.3991V106.669C543.87 115.119 548.27 119.279 554.75 119.279C558.62 119.279 562.23 117.749 565.59 114.539C566.49 113.679 567.97 113.879 568.65 114.919L570.65 117.949C571.18 118.749 571.06 119.809 570.38 120.489C565.57 125.329 560.13 127.609 553.71 127.609C542.37 127.609 535.2 120.439 535.2 107.479H535.19Z" fill="black"/>
<path d="M599.75 119.28C606.72 119.28 613.91 115.89 617.71 110.18C617.93 109.85 618.03 109.47 618.03 109.07V71.5195C618.03 70.4195 618.93 69.5195 620.03 69.5195H624.82C625.92 69.5195 626.82 70.4195 626.82 71.5195V124.45C626.82 125.55 625.92 126.45 624.82 126.45H620.26C619.16 126.45 618.26 125.55 618.26 124.45V122.93C618.26 121.21 616.22 120.27 614.95 121.43C610.3 125.64 604.16 127.61 598.02 127.61C584.02 127.61 575.11 118.35 575.11 103.78V71.5295C575.11 70.4295 576.01 69.5295 577.11 69.5295H581.79C582.89 69.5295 583.79 70.4295 583.79 71.5295V102.62C583.79 112.8 590.04 119.28 599.76 119.28H599.75Z" fill="black"/>
<path d="M683.05 123.23C683.05 121.5 681.03 120.62 679.72 121.74C675.36 125.49 669.68 127.61 662.81 127.61C646.61 127.61 634.35 115 634.35 98.1097C634.35 81.2197 646.5 68.3697 662.93 68.3697C669.42 68.3697 675.04 70.3197 679.51 74.1597C680.82 75.2797 682.83 74.3897 682.83 72.6697V41.6797C682.83 40.5797 683.73 39.6797 684.83 39.6797H689.51C690.61 39.6797 691.51 40.5797 691.51 41.6797V124.46C691.51 125.56 690.61 126.46 689.51 126.46H685.06C683.96 126.46 683.06 125.56 683.06 124.46V123.23H683.05ZM648.65 114.86C663.15 123.03 676.64 119.43 682.74 109.95C682.95 109.63 683.05 109.25 683.05 108.87V87.2497C683.05 86.8697 682.95 86.4897 682.74 86.1597C678.98 80.3097 672.41 76.5897 664.54 76.5897C647.38 76.5897 636.33 94.4897 647.89 114.11C648.04 114.37 648.39 114.71 648.65 114.86Z" fill="black"/>
<path d="M705.07 69.5293H709.86C710.96 69.5293 711.86 70.4293 711.86 71.5293V124.459C711.86 125.559 710.96 126.459 709.86 126.459H705.07C703.97 126.459 703.07 125.559 703.07 124.459V71.5293C703.07 70.4293 703.97 69.5293 705.07 69.5293Z" fill="black"/>
<path d="M718.57 97.88C718.57 74.29 743.62 59.04 770.4 74.85C770.68 75.01 770.91 75.24 771.09 75.51C788.18 101.98 772.4 127.62 748.54 127.62C731.42 127.62 718.57 114.78 718.57 97.88ZM748.54 119.28C760.57 119.28 769.48 110.14 769.48 97.87C769.48 80.75 751.78 69.83 732.59 81.64C732.35 81.79 732.03 82.12 731.89 82.36C720.77 101.56 731.63 119.28 748.54 119.28Z" fill="black"/>
<path d="M709.86 50.7793H705.07C703.965 50.7793 703.07 51.6747 703.07 52.7793V57.5693C703.07 58.6739 703.965 59.5693 705.07 59.5693H709.86C710.965 59.5693 711.86 58.6739 711.86 57.5693V52.7793C711.86 51.6747 710.965 50.7793 709.86 50.7793Z" fill="black"/>
<defs>
<linearGradient id="paint0_linear_3138_1635" x1="89.54" y1="179.09" x2="89.54" y2="0" gradientUnits="userSpaceOnUse">
<stop stop-color="#003DF5"/>
<stop offset="1" stop-color="#0077F0"/>
</linearGradient>
</defs>
</svg>
