<svg width="878" height="176" viewBox="0 0 878 176" fill="none" xmlns="http://www.w3.org/2000/svg">
<path d="M167.388 0H14.9237C6.68157 0 0 6.40106 0 14.2972V160.36C0 168.257 6.68157 174.658 14.9237 174.658H167.388C175.63 174.658 182.312 168.257 182.312 160.36V14.2972C182.312 6.40106 175.63 0 167.388 0Z" fill="url(#paint0_linear_3344_1300)"/>
<path d="M61.4254 96.5224C60.5907 95.4107 58.8703 95.3814 57.9948 96.4932L34.1535 127.058C33.105 128.403 34.123 130.315 35.8332 130.315H47.2652C53.9025 130.315 60.1631 127.292 64.1536 122.191L71.5951 112.663C72.155 111.961 72.155 111.015 71.5951 110.283L61.3542 96.5224H61.4254Z" fill="white"/>
<path d="M138.09 105.913C137.429 105.045 136.095 104.84 135.189 105.474C129.529 109.57 122.22 111.082 115.023 109.336C105.301 106.986 98.1342 98.6671 97.3707 89.0999C96.3221 75.778 107.296 64.5724 120.998 64.5724C125.895 64.5724 130.577 65.9767 134.527 68.6294C135.433 69.2341 136.726 69 137.357 68.1223L147.181 55.0052C147.843 54.0982 147.669 52.8206 146.723 52.1867C139.241 47.1154 130.364 44.3359 120.998 44.3359C105.474 44.3359 91.7717 51.9526 83.7703 63.5289L79.9936 68.3954C79.1588 69.4681 77.4792 69.4681 76.6342 68.3954L64.225 52.4598C60.1326 47.3592 53.8822 44.3359 47.2347 44.3359H37.6962C35.9859 44.3359 35.0087 46.1792 35.9859 47.525L58.3919 77.3872L81.1846 107.717L84.1164 111.677C92.1891 122.883 105.688 130.265 120.957 130.265C130.71 130.265 140.045 127.213 147.771 121.644C148.677 120.971 148.85 119.694 148.158 118.826L138.09 105.903V105.913Z" fill="white"/>
<path d="M241.091 130H208.091V36.9091H241.364C250.727 36.9091 258.788 38.7727 265.545 42.5C272.303 46.197 277.5 51.5151 281.136 58.4545C284.803 65.3939 286.636 73.697 286.636 83.3636C286.636 93.0606 284.803 101.394 281.136 108.364C277.5 115.333 272.273 120.682 265.455 124.409C258.667 128.136 250.545 130 241.091 130ZM227.773 113.136H240.273C246.091 113.136 250.985 112.106 254.955 110.045C258.955 107.955 261.955 104.727 263.955 100.364C265.985 95.9697 267 90.303 267 83.3636C267 76.4848 265.985 70.8636 263.955 66.5C261.955 62.1364 258.97 58.9242 255 56.8636C251.03 54.803 246.136 53.7727 240.318 53.7727H227.773V113.136ZM332.67 131.364C325.489 131.364 319.307 129.909 314.125 127C308.973 124.061 305.004 119.909 302.216 114.545C299.428 109.152 298.034 102.773 298.034 95.4091C298.034 88.2273 299.428 81.9242 302.216 76.5C305.004 71.0758 308.928 66.8485 313.989 63.8182C319.08 60.7879 325.049 59.2727 331.898 59.2727C336.504 59.2727 340.792 60.0152 344.761 61.5C348.761 62.9545 352.246 65.1515 355.216 68.0909C358.216 71.0303 360.549 74.7273 362.216 79.1818C363.883 83.6061 364.716 88.7879 364.716 94.7273V100.045H305.761V88.0455H346.489C346.489 85.2576 345.883 82.7879 344.67 80.6364C343.458 78.4848 341.777 76.803 339.625 75.5909C337.504 74.3485 335.034 73.7273 332.216 73.7273C329.277 73.7273 326.67 74.4091 324.398 75.7727C322.155 77.1061 320.398 78.9091 319.125 81.1818C317.852 83.4242 317.201 85.9242 317.17 88.6818V100.091C317.17 103.545 317.807 106.53 319.08 109.045C320.383 111.561 322.216 113.5 324.58 114.864C326.943 116.227 329.746 116.909 332.989 116.909C335.14 116.909 337.11 116.606 338.898 116C340.686 115.394 342.216 114.485 343.489 113.273C344.761 112.061 345.731 110.576 346.398 108.818L364.307 110C363.398 114.303 361.534 118.061 358.716 121.273C355.928 124.455 352.322 126.939 347.898 128.727C343.504 130.485 338.428 131.364 332.67 131.364ZM377.352 130V60.1818H395.807V72.5H396.625C398.08 68.4091 400.504 65.1818 403.898 62.8182C407.292 60.4545 411.352 59.2727 416.08 59.2727C420.867 59.2727 424.943 60.4697 428.307 62.8636C431.67 65.2273 433.913 68.4394 435.034 72.5H435.761C437.186 68.5 439.761 65.303 443.489 62.9091C447.246 60.4848 451.686 59.2727 456.807 59.2727C463.322 59.2727 468.61 61.3485 472.67 65.5C476.761 69.6212 478.807 75.4697 478.807 83.0455V130H459.489V86.8636C459.489 82.9848 458.458 80.0758 456.398 78.1364C454.337 76.197 451.761 75.2273 448.67 75.2273C445.155 75.2273 442.413 76.3485 440.443 78.5909C438.473 80.803 437.489 83.7273 437.489 87.3636V130H418.716V86.4545C418.716 83.0303 417.731 80.303 415.761 78.2727C413.822 76.2424 411.261 75.2273 408.08 75.2273C405.928 75.2273 403.989 75.7727 402.261 76.8636C400.564 77.9242 399.216 79.4242 398.216 81.3636C397.216 83.2727 396.716 85.5152 396.716 88.0909V130H377.352ZM525.648 131.364C518.587 131.364 512.481 129.864 507.33 126.864C502.208 123.833 498.254 119.621 495.466 114.227C492.678 108.803 491.284 102.515 491.284 95.3636C491.284 88.1515 492.678 81.8485 495.466 76.4545C498.254 71.0303 502.208 66.8182 507.33 63.8182C512.481 60.7879 518.587 59.2727 525.648 59.2727C532.708 59.2727 538.799 60.7879 543.92 63.8182C549.072 66.8182 553.042 71.0303 555.83 76.4545C558.617 81.8485 560.011 88.1515 560.011 95.3636C560.011 102.515 558.617 108.803 555.83 114.227C553.042 119.621 549.072 123.833 543.92 126.864C538.799 129.864 532.708 131.364 525.648 131.364ZM525.739 116.364C528.951 116.364 531.633 115.455 533.784 113.636C535.936 111.788 537.557 109.273 538.648 106.091C539.769 102.909 540.33 99.2879 540.33 95.2273C540.33 91.1667 539.769 87.5455 538.648 84.3636C537.557 81.1818 535.936 78.6667 533.784 76.8182C531.633 74.9697 528.951 74.0455 525.739 74.0455C522.496 74.0455 519.769 74.9697 517.557 76.8182C515.375 78.6667 513.723 81.1818 512.602 84.3636C511.511 87.5455 510.966 91.1667 510.966 95.2273C510.966 99.2879 511.511 102.909 512.602 106.091C513.723 109.273 515.375 111.788 517.557 113.636C519.769 115.455 522.496 116.364 525.739 116.364ZM579.966 130H568.148L602.33 36.9091H613.966L648.148 130H636.33L608.511 51.6364H607.784L579.966 130ZM584.33 93.6364H631.966V103.636H584.33V93.6364ZM661.193 156.182V60.1818H671.557V71.2727H672.83C673.617 70.0606 674.708 68.5151 676.102 66.6364C677.527 64.7273 679.557 63.0303 682.193 61.5455C684.86 60.0303 688.466 59.2727 693.011 59.2727C698.89 59.2727 704.072 60.7424 708.557 63.6818C713.042 66.6212 716.542 70.7879 719.057 76.1818C721.572 81.5758 722.83 87.9394 722.83 95.2727C722.83 102.667 721.572 109.076 719.057 114.5C716.542 119.894 713.057 124.076 708.602 127.045C704.148 129.985 699.011 131.455 693.193 131.455C688.708 131.455 685.117 130.712 682.42 129.227C679.723 127.712 677.648 126 676.193 124.091C674.739 122.152 673.617 120.545 672.83 119.273H671.92V156.182H661.193ZM671.739 95.0909C671.739 100.364 672.511 105.015 674.057 109.045C675.602 113.045 677.86 116.182 680.83 118.455C683.799 120.697 687.436 121.818 691.739 121.818C696.223 121.818 699.966 120.636 702.966 118.273C705.996 115.879 708.269 112.667 709.784 108.636C711.33 104.576 712.102 100.061 712.102 95.0909C712.102 90.1818 711.345 85.7576 709.83 81.8182C708.345 77.8485 706.087 74.7121 703.057 72.4091C700.057 70.0758 696.284 68.9091 691.739 68.9091C687.375 68.9091 683.708 70.0151 680.739 72.2273C677.769 74.4091 675.527 77.4697 674.011 81.4091C672.496 85.3182 671.739 89.8788 671.739 95.0909ZM739.193 156.182V60.1818H749.557V71.2727H750.83C751.617 70.0606 752.708 68.5151 754.102 66.6364C755.527 64.7273 757.557 63.0303 760.193 61.5455C762.86 60.0303 766.466 59.2727 771.011 59.2727C776.89 59.2727 782.072 60.7424 786.557 63.6818C791.042 66.6212 794.542 70.7879 797.057 76.1818C799.572 81.5758 800.83 87.9394 800.83 95.2727C800.83 102.667 799.572 109.076 797.057 114.5C794.542 119.894 791.057 124.076 786.602 127.045C782.148 129.985 777.011 131.455 771.193 131.455C766.708 131.455 763.117 130.712 760.42 129.227C757.723 127.712 755.648 126 754.193 124.091C752.739 122.152 751.617 120.545 750.83 119.273H749.92V156.182H739.193ZM749.739 95.0909C749.739 100.364 750.511 105.015 752.057 109.045C753.602 113.045 755.86 116.182 758.83 118.455C761.799 120.697 765.436 121.818 769.739 121.818C774.223 121.818 777.966 120.636 780.966 118.273C783.996 115.879 786.269 112.667 787.784 108.636C789.33 104.576 790.102 100.061 790.102 95.0909C790.102 90.1818 789.345 85.7576 787.83 81.8182C786.345 77.8485 784.087 74.7121 781.057 72.4091C778.057 70.0758 774.284 68.9091 769.739 68.9091C765.375 68.9091 761.708 70.0151 758.739 72.2273C755.769 74.4091 753.527 77.4697 752.011 81.4091C750.496 85.3182 749.739 89.8788 749.739 95.0909ZM866.648 75.8182L857.011 78.5455C856.405 76.9394 855.511 75.3788 854.33 73.8636C853.178 72.3182 851.602 71.0455 849.602 70.0455C847.602 69.0455 845.042 68.5455 841.92 68.5455C837.648 68.5455 834.087 69.5303 831.239 71.5C828.42 73.4394 827.011 75.9091 827.011 78.9091C827.011 81.5758 827.981 83.6818 829.92 85.2273C831.86 86.7727 834.89 88.0606 839.011 89.0909L849.375 91.6364C855.617 93.1515 860.269 95.4697 863.33 98.5909C866.39 101.682 867.92 105.667 867.92 110.545C867.92 114.545 866.769 118.121 864.466 121.273C862.193 124.424 859.011 126.909 854.92 128.727C850.83 130.545 846.072 131.455 840.648 131.455C833.527 131.455 827.633 129.909 822.966 126.818C818.299 123.727 815.345 119.212 814.102 113.273L824.284 110.727C825.254 114.485 827.087 117.303 829.784 119.182C832.511 121.061 836.072 122 840.466 122C845.466 122 849.436 120.939 852.375 118.818C855.345 116.667 856.83 114.091 856.83 111.091C856.83 108.667 855.981 106.636 854.284 105C852.587 103.333 849.981 102.091 846.466 101.273L834.83 98.5455C828.436 97.0303 823.739 94.6818 820.739 91.5C817.769 88.2879 816.284 84.2727 816.284 79.4545C816.284 75.5151 817.39 72.0303 819.602 69C821.845 65.9697 824.89 63.5909 828.739 61.8636C832.617 60.1364 837.011 59.2727 841.92 59.2727C848.83 59.2727 854.254 60.7879 858.193 63.8182C862.163 66.8485 864.981 70.8485 866.648 75.8182Z" fill="black"/>
<defs>
<linearGradient id="paint0_linear_3344_1300" x1="91.1507" y1="174.658" x2="91.1507" y2="0" gradientUnits="userSpaceOnUse">
<stop stop-color="#003DF5"/>
<stop offset="1" stop-color="#0077F0"/>
</linearGradient>
</defs>
</svg>
